<svg width="20" height="20" viewBox="0 0 20 20" fill="none" xmlns="http://www.w3.org/2000/svg">
<path fill-rule="evenodd" clip-rule="evenodd" d="M0.0999938 8.80001C0.599994 4.30001 4.29999 0.600008 8.89999 0.100007C14.9 -0.599993 20 4.10001 20 10.1C20 14.3 17.4 17.9 13.7 19.4C13.3 19.5 13 19.2 13 18.9V16.3C13 15.4 12.6 14.5 12 14C14.3 13.5 16 12.2 16 10C16 8.80001 15.5 7.80001 14.8 7.00001C14.9 6.80001 15 6.40001 15 5.60001C15 5.20001 15 4.60001 14.8 4.00001C14.8 4.00001 13.3 4.00001 12 5.30001C11.4 5.10001 10.7 5.00001 9.99999 5.00001C9.29999 5.00001 8.59999 5.10001 8.09999 5.30001C6.69999 4.00001 5.29999 4.00001 5.29999 4.00001C4.99999 4.60001 4.99999 5.20001 4.99999 5.60001C4.99999 6.30001 5.09999 6.80001 5.19999 7.00001C4.49999 7.80001 3.99999 8.90001 3.99999 10C3.99999 12.2 5.69999 13.5 7.99999 14C7.39999 14.4 7.09999 15.1 6.99999 15.8C6.79999 15.9 6.49999 16 6.09999 16C5.79999 16 5.19999 15.8 4.69999 15C4.49999 14.7 3.99999 14 3.39999 14C3.29999 14 2.99999 14 2.99999 14.2C2.99999 14.2768 3.05891 14.2946 3.22197 14.344C3.27135 14.3589 3.33027 14.3768 3.39999 14.4C3.69999 14.7 3.89999 15 3.99999 15.4C4.09999 16.1 4.69999 17.3 6.09999 17.3C6.59999 17.3 6.99999 17.2 6.99999 17.2V18.8C6.99999 19.2 6.69999 19.4 6.39999 19.3C2.29999 17.7 -0.400006 13.5 0.0999938 8.80001Z" fill="#310A90"/>
</svg>
